<mxfile host="app.diagrams.net" modified="2023-07-23T06:03:48.094Z" agent="Mozilla/5.0 (Windows NT 10.0; Win64; x64) AppleWebKit/537.36 (KHTML, like Gecko) Chrome/114.0.0.0 Safari/537.36" etag="g6lDXxQINWBgwGUcArvr" version="21.3.4" type="device" pages="2">
  <diagram name="Page-1" id="cg_GQYhqsvkBd8KRTGXT">
    <mxGraphModel dx="1884" dy="477" grid="1" gridSize="10" guides="1" tooltips="1" connect="1" arrows="1" fold="1" page="1" pageScale="1" pageWidth="850" pageHeight="1100" math="0" shadow="0">
      <root>
        <mxCell id="0" />
        <mxCell id="1" parent="0" />
        <mxCell id="XIH4bLt2Uu97pyjbTt76-2" style="edgeStyle=orthogonalEdgeStyle;rounded=0;orthogonalLoop=1;jettySize=auto;html=1;exitX=0.5;exitY=1;exitDx=0;exitDy=0;entryX=0.5;entryY=0;entryDx=0;entryDy=0;" edge="1" parent="1" source="XIH4bLt2Uu97pyjbTt76-1" target="XIH4bLt2Uu97pyjbTt76-4">
          <mxGeometry relative="1" as="geometry">
            <mxPoint x="200" y="160" as="targetPoint" />
          </mxGeometry>
        </mxCell>
        <mxCell id="XIH4bLt2Uu97pyjbTt76-5" style="edgeStyle=orthogonalEdgeStyle;rounded=0;orthogonalLoop=1;jettySize=auto;html=1;exitX=0.5;exitY=1;exitDx=0;exitDy=0;" edge="1" parent="1" source="XIH4bLt2Uu97pyjbTt76-1" target="XIH4bLt2Uu97pyjbTt76-6">
          <mxGeometry relative="1" as="geometry">
            <mxPoint x="420" y="170" as="targetPoint" />
          </mxGeometry>
        </mxCell>
        <mxCell id="XIH4bLt2Uu97pyjbTt76-1" value="Schedule" style="rounded=0;whiteSpace=wrap;html=1;" vertex="1" parent="1">
          <mxGeometry x="200" y="40" width="120" height="60" as="geometry" />
        </mxCell>
        <mxCell id="XIH4bLt2Uu97pyjbTt76-7" style="edgeStyle=orthogonalEdgeStyle;rounded=0;orthogonalLoop=1;jettySize=auto;html=1;exitX=0.5;exitY=1;exitDx=0;exitDy=0;entryX=0.5;entryY=0;entryDx=0;entryDy=0;" edge="1" parent="1" source="XIH4bLt2Uu97pyjbTt76-4" target="XIH4bLt2Uu97pyjbTt76-8">
          <mxGeometry relative="1" as="geometry">
            <mxPoint x="80" y="280" as="targetPoint" />
          </mxGeometry>
        </mxCell>
        <mxCell id="XIH4bLt2Uu97pyjbTt76-10" style="edgeStyle=orthogonalEdgeStyle;rounded=0;orthogonalLoop=1;jettySize=auto;html=1;exitX=0.5;exitY=1;exitDx=0;exitDy=0;entryX=0.5;entryY=0;entryDx=0;entryDy=0;" edge="1" parent="1" source="XIH4bLt2Uu97pyjbTt76-4" target="XIH4bLt2Uu97pyjbTt76-9">
          <mxGeometry relative="1" as="geometry" />
        </mxCell>
        <mxCell id="XIH4bLt2Uu97pyjbTt76-4" value="CreateSchedule" style="rounded=0;whiteSpace=wrap;html=1;" vertex="1" parent="1">
          <mxGeometry x="60" y="170" width="120" height="60" as="geometry" />
        </mxCell>
        <mxCell id="XIH4bLt2Uu97pyjbTt76-19" style="edgeStyle=orthogonalEdgeStyle;rounded=0;orthogonalLoop=1;jettySize=auto;html=1;exitX=0.5;exitY=1;exitDx=0;exitDy=0;entryX=0.5;entryY=0;entryDx=0;entryDy=0;" edge="1" parent="1" source="XIH4bLt2Uu97pyjbTt76-6" target="cQDl6IrV7G0JmFQTKrAQ-1">
          <mxGeometry relative="1" as="geometry">
            <mxPoint x="510" y="290" as="targetPoint" />
          </mxGeometry>
        </mxCell>
        <mxCell id="XIH4bLt2Uu97pyjbTt76-6" value="ScheduleListItem" style="rounded=1;whiteSpace=wrap;html=1;" vertex="1" parent="1">
          <mxGeometry x="330" y="170" width="120" height="60" as="geometry" />
        </mxCell>
        <mxCell id="XIH4bLt2Uu97pyjbTt76-12" style="edgeStyle=orthogonalEdgeStyle;rounded=0;orthogonalLoop=1;jettySize=auto;html=1;exitX=0.5;exitY=1;exitDx=0;exitDy=0;entryX=0.5;entryY=0;entryDx=0;entryDy=0;" edge="1" parent="1" source="XIH4bLt2Uu97pyjbTt76-8" target="XIH4bLt2Uu97pyjbTt76-11">
          <mxGeometry relative="1" as="geometry" />
        </mxCell>
        <mxCell id="XIH4bLt2Uu97pyjbTt76-8" value="DaysSection" style="rounded=1;whiteSpace=wrap;html=1;" vertex="1" parent="1">
          <mxGeometry x="-30" y="290" width="120" height="60" as="geometry" />
        </mxCell>
        <mxCell id="XIH4bLt2Uu97pyjbTt76-14" style="edgeStyle=orthogonalEdgeStyle;rounded=0;orthogonalLoop=1;jettySize=auto;html=1;exitX=0.5;exitY=1;exitDx=0;exitDy=0;entryX=0.5;entryY=0;entryDx=0;entryDy=0;" edge="1" parent="1" source="XIH4bLt2Uu97pyjbTt76-9" target="XIH4bLt2Uu97pyjbTt76-13">
          <mxGeometry relative="1" as="geometry" />
        </mxCell>
        <mxCell id="XIH4bLt2Uu97pyjbTt76-9" value="DurationSection" style="rounded=1;whiteSpace=wrap;html=1;" vertex="1" parent="1">
          <mxGeometry x="160" y="290" width="120" height="60" as="geometry" />
        </mxCell>
        <mxCell id="XIH4bLt2Uu97pyjbTt76-15" style="edgeStyle=orthogonalEdgeStyle;rounded=0;orthogonalLoop=1;jettySize=auto;html=1;exitX=0.5;exitY=1;exitDx=0;exitDy=0;entryX=0.5;entryY=0;entryDx=0;entryDy=0;" edge="1" parent="1" source="XIH4bLt2Uu97pyjbTt76-11" target="XIH4bLt2Uu97pyjbTt76-16">
          <mxGeometry relative="1" as="geometry">
            <mxPoint x="-50" y="520" as="targetPoint" />
          </mxGeometry>
        </mxCell>
        <mxCell id="XIH4bLt2Uu97pyjbTt76-17" style="edgeStyle=orthogonalEdgeStyle;rounded=0;orthogonalLoop=1;jettySize=auto;html=1;exitX=0.5;exitY=1;exitDx=0;exitDy=0;entryX=0.5;entryY=0;entryDx=0;entryDy=0;" edge="1" parent="1" source="XIH4bLt2Uu97pyjbTt76-11" target="XIH4bLt2Uu97pyjbTt76-18">
          <mxGeometry relative="1" as="geometry">
            <mxPoint x="110" y="530" as="targetPoint" />
          </mxGeometry>
        </mxCell>
        <mxCell id="XIH4bLt2Uu97pyjbTt76-11" value="DayDetail" style="rounded=1;whiteSpace=wrap;html=1;" vertex="1" parent="1">
          <mxGeometry x="-30" y="410" width="120" height="60" as="geometry" />
        </mxCell>
        <mxCell id="XIH4bLt2Uu97pyjbTt76-13" value="DurationInputItem" style="rounded=1;whiteSpace=wrap;html=1;" vertex="1" parent="1">
          <mxGeometry x="160" y="410" width="120" height="60" as="geometry" />
        </mxCell>
        <mxCell id="XIH4bLt2Uu97pyjbTt76-16" value="ExcerciseListItem" style="rounded=1;whiteSpace=wrap;html=1;" vertex="1" parent="1">
          <mxGeometry x="-110" y="530" width="120" height="60" as="geometry" />
        </mxCell>
        <mxCell id="XIH4bLt2Uu97pyjbTt76-18" value="ExcerciseChoosenList" style="rounded=1;whiteSpace=wrap;html=1;" vertex="1" parent="1">
          <mxGeometry x="50" y="530" width="130" height="60" as="geometry" />
        </mxCell>
        <mxCell id="XIH4bLt2Uu97pyjbTt76-23" style="edgeStyle=orthogonalEdgeStyle;rounded=0;orthogonalLoop=1;jettySize=auto;html=1;exitX=0.5;exitY=1;exitDx=0;exitDy=0;entryX=0.5;entryY=0;entryDx=0;entryDy=0;" edge="1" parent="1" source="cQDl6IrV7G0JmFQTKrAQ-1" target="XIH4bLt2Uu97pyjbTt76-22">
          <mxGeometry relative="1" as="geometry">
            <mxPoint x="510" y="350" as="sourcePoint" />
          </mxGeometry>
        </mxCell>
        <mxCell id="XIH4bLt2Uu97pyjbTt76-21" value="Progress" style="rounded=0;whiteSpace=wrap;html=1;" vertex="1" parent="1">
          <mxGeometry x="740" y="40" width="120" height="60" as="geometry" />
        </mxCell>
        <mxCell id="XIH4bLt2Uu97pyjbTt76-24" style="edgeStyle=orthogonalEdgeStyle;rounded=0;orthogonalLoop=1;jettySize=auto;html=1;exitX=0.5;exitY=1;exitDx=0;exitDy=0;entryX=0.5;entryY=0;entryDx=0;entryDy=0;" edge="1" parent="1" source="XIH4bLt2Uu97pyjbTt76-22" target="XIH4bLt2Uu97pyjbTt76-25">
          <mxGeometry relative="1" as="geometry">
            <mxPoint x="510" y="520" as="targetPoint" />
          </mxGeometry>
        </mxCell>
        <mxCell id="XIH4bLt2Uu97pyjbTt76-22" value="WeekDetail" style="rounded=1;whiteSpace=wrap;html=1;" vertex="1" parent="1">
          <mxGeometry x="450" y="410" width="120" height="60" as="geometry" />
        </mxCell>
        <mxCell id="XIH4bLt2Uu97pyjbTt76-25" value="WorkoutDay" style="rounded=1;whiteSpace=wrap;html=1;" vertex="1" parent="1">
          <mxGeometry x="450" y="530" width="120" height="60" as="geometry" />
        </mxCell>
        <mxCell id="cQDl6IrV7G0JmFQTKrAQ-1" value="&lt;span style=&quot;color: rgb(0, 0, 0); font-family: Helvetica; font-size: 12px; font-style: normal; font-variant-ligatures: normal; font-variant-caps: normal; font-weight: 400; letter-spacing: normal; orphans: 2; text-align: center; text-indent: 0px; text-transform: none; widows: 2; word-spacing: 0px; -webkit-text-stroke-width: 0px; background-color: rgb(251, 251, 251); text-decoration-thickness: initial; text-decoration-style: initial; text-decoration-color: initial; float: none; display: inline !important;&quot;&gt;ScheduleDetail&lt;/span&gt;" style="rounded=0;whiteSpace=wrap;html=1;" vertex="1" parent="1">
          <mxGeometry x="450" y="290" width="120" height="60" as="geometry" />
        </mxCell>
      </root>
    </mxGraphModel>
  </diagram>
  <diagram id="3DStsmrZgnRzIoqBi5pp" name="Page-2">
    <mxGraphModel dx="1034" dy="477" grid="1" gridSize="10" guides="1" tooltips="1" connect="1" arrows="1" fold="1" page="1" pageScale="1" pageWidth="850" pageHeight="1100" math="0" shadow="0">
      <root>
        <mxCell id="0" />
        <mxCell id="1" parent="0" />
        <mxCell id="D95yFizSoRd4UmmYpZTI-3" style="edgeStyle=orthogonalEdgeStyle;rounded=0;orthogonalLoop=1;jettySize=auto;html=1;exitX=0.5;exitY=1;exitDx=0;exitDy=0;entryX=0.5;entryY=0;entryDx=0;entryDy=0;" edge="1" parent="1" source="D95yFizSoRd4UmmYpZTI-2" target="D95yFizSoRd4UmmYpZTI-4">
          <mxGeometry relative="1" as="geometry">
            <mxPoint x="390" y="150" as="targetPoint" />
          </mxGeometry>
        </mxCell>
        <mxCell id="D95yFizSoRd4UmmYpZTI-2" value="Schedule" style="rounded=0;whiteSpace=wrap;html=1;" vertex="1" parent="1">
          <mxGeometry x="330" y="30" width="120" height="60" as="geometry" />
        </mxCell>
        <mxCell id="D95yFizSoRd4UmmYpZTI-7" style="edgeStyle=orthogonalEdgeStyle;rounded=0;orthogonalLoop=1;jettySize=auto;html=1;exitX=0.5;exitY=1;exitDx=0;exitDy=0;entryX=0.5;entryY=0;entryDx=0;entryDy=0;" edge="1" parent="1" source="D95yFizSoRd4UmmYpZTI-4" target="D95yFizSoRd4UmmYpZTI-6">
          <mxGeometry relative="1" as="geometry" />
        </mxCell>
        <mxCell id="D95yFizSoRd4UmmYpZTI-4" value="CreateSchedule" style="rounded=0;whiteSpace=wrap;html=1;" vertex="1" parent="1">
          <mxGeometry x="330" y="120" width="120" height="60" as="geometry" />
        </mxCell>
        <mxCell id="9D9LEvJoGU2DBE4hI625-1" style="edgeStyle=orthogonalEdgeStyle;rounded=0;orthogonalLoop=1;jettySize=auto;html=1;exitX=0.5;exitY=1;exitDx=0;exitDy=0;entryX=0.5;entryY=0;entryDx=0;entryDy=0;" edge="1" parent="1" source="D95yFizSoRd4UmmYpZTI-6" target="9D9LEvJoGU2DBE4hI625-2">
          <mxGeometry relative="1" as="geometry">
            <mxPoint x="390" y="370" as="targetPoint" />
          </mxGeometry>
        </mxCell>
        <mxCell id="D95yFizSoRd4UmmYpZTI-6" value="DurationSection" style="rounded=0;whiteSpace=wrap;html=1;" vertex="1" parent="1">
          <mxGeometry x="330" y="210" width="120" height="60" as="geometry" />
        </mxCell>
        <mxCell id="9D9LEvJoGU2DBE4hI625-4" style="edgeStyle=orthogonalEdgeStyle;rounded=0;orthogonalLoop=1;jettySize=auto;html=1;exitX=0.5;exitY=1;exitDx=0;exitDy=0;entryX=0.5;entryY=0;entryDx=0;entryDy=0;" edge="1" parent="1" source="9D9LEvJoGU2DBE4hI625-2" target="9D9LEvJoGU2DBE4hI625-3">
          <mxGeometry relative="1" as="geometry" />
        </mxCell>
        <mxCell id="9D9LEvJoGU2DBE4hI625-2" value="DaySection" style="rounded=0;whiteSpace=wrap;html=1;" vertex="1" parent="1">
          <mxGeometry x="330" y="300" width="120" height="60" as="geometry" />
        </mxCell>
        <mxCell id="9D9LEvJoGU2DBE4hI625-14" style="edgeStyle=orthogonalEdgeStyle;rounded=0;orthogonalLoop=1;jettySize=auto;html=1;exitX=0;exitY=0.5;exitDx=0;exitDy=0;entryX=0;entryY=0.5;entryDx=0;entryDy=0;" edge="1" parent="1" source="9D9LEvJoGU2DBE4hI625-3" target="9D9LEvJoGU2DBE4hI625-2">
          <mxGeometry relative="1" as="geometry" />
        </mxCell>
        <mxCell id="9D9LEvJoGU2DBE4hI625-3" value="DayDetail" style="rounded=0;whiteSpace=wrap;html=1;" vertex="1" parent="1">
          <mxGeometry x="330" y="390" width="120" height="60" as="geometry" />
        </mxCell>
        <mxCell id="9D9LEvJoGU2DBE4hI625-5" style="edgeStyle=orthogonalEdgeStyle;rounded=0;orthogonalLoop=1;jettySize=auto;html=1;exitX=0.5;exitY=1;exitDx=0;exitDy=0;entryX=0.5;entryY=0;entryDx=0;entryDy=0;" edge="1" parent="1" source="9D9LEvJoGU2DBE4hI625-6" target="9D9LEvJoGU2DBE4hI625-8">
          <mxGeometry relative="1" as="geometry">
            <mxPoint x="570" y="150" as="targetPoint" />
          </mxGeometry>
        </mxCell>
        <mxCell id="9D9LEvJoGU2DBE4hI625-6" value="Schedule" style="rounded=0;whiteSpace=wrap;html=1;" vertex="1" parent="1">
          <mxGeometry x="510" y="30" width="120" height="60" as="geometry" />
        </mxCell>
        <mxCell id="9D9LEvJoGU2DBE4hI625-7" style="edgeStyle=orthogonalEdgeStyle;rounded=0;orthogonalLoop=1;jettySize=auto;html=1;exitX=0.5;exitY=1;exitDx=0;exitDy=0;entryX=0.5;entryY=0;entryDx=0;entryDy=0;" edge="1" parent="1" source="9D9LEvJoGU2DBE4hI625-8" target="9D9LEvJoGU2DBE4hI625-10">
          <mxGeometry relative="1" as="geometry" />
        </mxCell>
        <mxCell id="9D9LEvJoGU2DBE4hI625-8" value="ScheduleDetail" style="rounded=0;whiteSpace=wrap;html=1;" vertex="1" parent="1">
          <mxGeometry x="510" y="120" width="120" height="60" as="geometry" />
        </mxCell>
        <mxCell id="9D9LEvJoGU2DBE4hI625-9" style="edgeStyle=orthogonalEdgeStyle;rounded=0;orthogonalLoop=1;jettySize=auto;html=1;exitX=0.5;exitY=1;exitDx=0;exitDy=0;entryX=0.5;entryY=0;entryDx=0;entryDy=0;" edge="1" parent="1" source="9D9LEvJoGU2DBE4hI625-10" target="9D9LEvJoGU2DBE4hI625-12">
          <mxGeometry relative="1" as="geometry">
            <mxPoint x="570" y="370" as="targetPoint" />
          </mxGeometry>
        </mxCell>
        <mxCell id="9D9LEvJoGU2DBE4hI625-10" value="WeekDetail" style="rounded=0;whiteSpace=wrap;html=1;" vertex="1" parent="1">
          <mxGeometry x="510" y="210" width="120" height="60" as="geometry" />
        </mxCell>
        <mxCell id="9D9LEvJoGU2DBE4hI625-12" value="WorkoutDay" style="rounded=0;whiteSpace=wrap;html=1;" vertex="1" parent="1">
          <mxGeometry x="510" y="300" width="120" height="60" as="geometry" />
        </mxCell>
      </root>
    </mxGraphModel>
  </diagram>
</mxfile>
